# xmcd
#
# Track frame offsets: 
#        150
#        29128
#        55762
#        77986
#        99989
#        121113
#        148573
#        168264
#        190546
#        214225
#        236355
#        262720
#        284816
#
# Disc length: 4136 seconds
#
# Revision: 2
# Processed by: cddbd v1.5.2PL0 Copyright (c) Steve Scherf et al.
# Submitted via: ExactAudioCopy v0.99pb5
#
DISCID=b110260d
DTITLE=Juan Formell y Los VAN VAN - Arrasando
DYEAR=2009
DGENRE=Salsa
TTITLE0=Arrasando
TTITLE1=Si no te quieres tu
TTITLE2=Tu a lo tuyo, yo a lo mío
TTITLE3=Me trajo dos
TTITLE4=Que no te dé por eso
TTITLE5=La rumba no
TTITLE6=Este amor que se muere
TTITLE7=Me mantengo
TTITLE8=Dame la luz
TTITLE9=Mi Songo
TTITLE10=Un tumbao pá los dos
TTITLE11=Olaya
TTITLE12=El trasvesti
EXTD=
EXTT0=
EXTT1=
EXTT2=
EXTT3=
EXTT4=
EXTT5=
EXTT6=
EXTT7=
EXTT8=
EXTT9=
EXTT10=
EXTT11=
EXTT12=
PLAYORDER=
